<svg preserveAspectRatio="none" width="100%" height="100%" overflow="visible" style="display: block;" viewBox="0 0 323.331 213" fill="none" xmlns="http://www.w3.org/2000/svg">
<path id="Vector" d="M35.9173 152.139C35.9173 172.418 0 172.418 0 152.139V60.8355C0 40.5822 35.9173 40.5822 35.9173 60.8355V152.139ZM107.777 197.791C107.727 218.019 71.9098 218.019 71.8346 197.791V15.2089C71.8847 -5.01918 107.702 -5.01918 107.777 15.2089V197.791ZM179.612 152.139C179.562 172.367 143.769 172.367 143.694 152.139V60.8355C143.744 40.6327 179.562 40.6327 179.612 60.8355V152.139ZM251.471 197.791C251.471 218.07 215.554 218.07 215.554 197.791V15.2089C215.554 -5.06963 251.471 -5.06963 251.471 15.2089V197.791ZM323.331 152.139C323.331 172.418 287.389 172.418 287.389 152.139V60.8355C287.389 40.5822 323.331 40.5822 323.331 60.8355V152.139Z" fill="url(#paint0_linear_0_4)" fill-opacity="0.25"/>
<defs>
<linearGradient id="paint0_linear_0_4" x1="161.665" y1="-4.23193e-07" x2="161.665" y2="213" gradientUnits="userSpaceOnUse">
<stop stop-color="white"/>
<stop offset="1" stop-color="white" stop-opacity="0.25"/>
</linearGradient>
</defs>
</svg>
